<mxfile host="Electron" agent="Mozilla/5.0 (Windows NT 10.0; Win64; x64) AppleWebKit/537.36 (KHTML, like Gecko) draw.io/27.0.9 Chrome/134.0.6998.205 Electron/35.4.0 Safari/537.36" version="27.0.9">
  <diagram name="Page-1" id="sVoMTHacRZusR67pIjP1">
    <mxGraphModel dx="1042" dy="626" grid="1" gridSize="10" guides="1" tooltips="1" connect="1" arrows="1" fold="1" page="1" pageScale="1" pageWidth="850" pageHeight="1100" math="0" shadow="0">
      <root>
        <mxCell id="0" />
        <mxCell id="1" parent="0" />
        <mxCell id="UE_xa0skoueRraevk4v9-1" value="" style="rounded=0;whiteSpace=wrap;html=1;fillColor=none;dashed=1;" parent="1" vertex="1">
          <mxGeometry x="40" y="150" width="150" height="440" as="geometry" />
        </mxCell>
        <mxCell id="UE_xa0skoueRraevk4v9-2" value="&lt;font style=&quot;font-size: 24px;&quot;&gt;Sources&lt;/font&gt;" style="rounded=0;whiteSpace=wrap;html=1;strokeColor=none;" parent="1" vertex="1">
          <mxGeometry x="60" y="110" width="110" height="70" as="geometry" />
        </mxCell>
        <mxCell id="4OVAsPp15FX57j23adfs-11" style="edgeStyle=orthogonalEdgeStyle;rounded=0;orthogonalLoop=1;jettySize=auto;html=1;" parent="1" source="4OVAsPp15FX57j23adfs-1" target="4OVAsPp15FX57j23adfs-7" edge="1">
          <mxGeometry relative="1" as="geometry" />
        </mxCell>
        <mxCell id="4OVAsPp15FX57j23adfs-12" style="edgeStyle=orthogonalEdgeStyle;rounded=0;orthogonalLoop=1;jettySize=auto;html=1;" parent="1" source="4OVAsPp15FX57j23adfs-1" target="4OVAsPp15FX57j23adfs-6" edge="1">
          <mxGeometry relative="1" as="geometry" />
        </mxCell>
        <mxCell id="4OVAsPp15FX57j23adfs-13" style="edgeStyle=orthogonalEdgeStyle;rounded=0;orthogonalLoop=1;jettySize=auto;html=1;" parent="1" source="4OVAsPp15FX57j23adfs-1" target="4OVAsPp15FX57j23adfs-8" edge="1">
          <mxGeometry relative="1" as="geometry" />
        </mxCell>
        <mxCell id="4OVAsPp15FX57j23adfs-1" value="CRM&lt;div&gt;&lt;br&gt;&lt;/div&gt;" style="image;aspect=fixed;html=1;points=[];align=center;fontSize=12;image=img/lib/azure2/general/Folder_Blank.svg;" parent="1" vertex="1">
          <mxGeometry x="90" y="257" width="69" height="56.00000000000001" as="geometry" />
        </mxCell>
        <mxCell id="4OVAsPp15FX57j23adfs-19" style="edgeStyle=orthogonalEdgeStyle;rounded=0;orthogonalLoop=1;jettySize=auto;html=1;" parent="1" source="4OVAsPp15FX57j23adfs-2" target="4OVAsPp15FX57j23adfs-17" edge="1">
          <mxGeometry relative="1" as="geometry" />
        </mxCell>
        <mxCell id="4OVAsPp15FX57j23adfs-20" style="edgeStyle=orthogonalEdgeStyle;rounded=0;orthogonalLoop=1;jettySize=auto;html=1;" parent="1" source="4OVAsPp15FX57j23adfs-2" target="4OVAsPp15FX57j23adfs-16" edge="1">
          <mxGeometry relative="1" as="geometry" />
        </mxCell>
        <mxCell id="4OVAsPp15FX57j23adfs-21" style="edgeStyle=orthogonalEdgeStyle;rounded=0;orthogonalLoop=1;jettySize=auto;html=1;" parent="1" source="4OVAsPp15FX57j23adfs-2" target="4OVAsPp15FX57j23adfs-18" edge="1">
          <mxGeometry relative="1" as="geometry" />
        </mxCell>
        <mxCell id="4OVAsPp15FX57j23adfs-2" value="&lt;div&gt;ERP&lt;/div&gt;&lt;div&gt;&lt;br&gt;&lt;/div&gt;" style="image;aspect=fixed;html=1;points=[];align=center;fontSize=12;image=img/lib/azure2/general/Folder_Blank.svg;" parent="1" vertex="1">
          <mxGeometry x="90" y="397" width="69" height="56.00000000000001" as="geometry" />
        </mxCell>
        <mxCell id="4OVAsPp15FX57j23adfs-3" value="" style="rounded=1;whiteSpace=wrap;html=1;fillColor=none;strokeColor=#6D1F00;fontColor=#ffffff;" parent="1" vertex="1">
          <mxGeometry x="280" y="200" width="160" height="390" as="geometry" />
        </mxCell>
        <mxCell id="4OVAsPp15FX57j23adfs-4" value="&lt;font style=&quot;font-size: 24px;&quot;&gt;Bronze Layer&lt;/font&gt;" style="rounded=1;whiteSpace=wrap;html=1;fillColor=#FFCC99;fontColor=#ffffff;strokeColor=#6D1F00;" parent="1" vertex="1">
          <mxGeometry x="280" y="130" width="160" height="60" as="geometry" />
        </mxCell>
        <mxCell id="xBVZhHVB03sZgFl3it3m-9" style="edgeStyle=orthogonalEdgeStyle;rounded=0;orthogonalLoop=1;jettySize=auto;html=1;" edge="1" parent="1" source="4OVAsPp15FX57j23adfs-6" target="xBVZhHVB03sZgFl3it3m-3">
          <mxGeometry relative="1" as="geometry" />
        </mxCell>
        <mxCell id="4OVAsPp15FX57j23adfs-6" value="&lt;span&gt;&lt;font style=&quot;color: rgb(0, 0, 0);&quot;&gt;crm_sales_details&lt;/font&gt;&lt;/span&gt;" style="rounded=1;whiteSpace=wrap;html=1;fillColor=#FFCC99;fontColor=#ffffff;strokeColor=#6D1F00;" parent="1" vertex="1">
          <mxGeometry x="290" y="230" width="140" height="30" as="geometry" />
        </mxCell>
        <mxCell id="xBVZhHVB03sZgFl3it3m-10" style="edgeStyle=orthogonalEdgeStyle;rounded=0;orthogonalLoop=1;jettySize=auto;html=1;" edge="1" parent="1" source="4OVAsPp15FX57j23adfs-7" target="xBVZhHVB03sZgFl3it3m-4">
          <mxGeometry relative="1" as="geometry" />
        </mxCell>
        <mxCell id="4OVAsPp15FX57j23adfs-7" value="&lt;span&gt;&lt;font style=&quot;color: rgb(0, 0, 0);&quot;&gt;crm_cust_info&lt;/font&gt;&lt;/span&gt;" style="rounded=1;whiteSpace=wrap;html=1;fillColor=#FFCC99;fontColor=#ffffff;strokeColor=#6D1F00;" parent="1" vertex="1">
          <mxGeometry x="290" y="270" width="140" height="30" as="geometry" />
        </mxCell>
        <mxCell id="xBVZhHVB03sZgFl3it3m-11" style="edgeStyle=orthogonalEdgeStyle;rounded=0;orthogonalLoop=1;jettySize=auto;html=1;" edge="1" parent="1" source="4OVAsPp15FX57j23adfs-8" target="xBVZhHVB03sZgFl3it3m-5">
          <mxGeometry relative="1" as="geometry" />
        </mxCell>
        <mxCell id="4OVAsPp15FX57j23adfs-8" value="&lt;span&gt;&lt;font style=&quot;color: rgb(0, 0, 0);&quot;&gt;crm_prd_info&lt;/font&gt;&lt;/span&gt;" style="rounded=1;whiteSpace=wrap;html=1;fillColor=#FFCC99;fontColor=#ffffff;strokeColor=#6D1F00;" parent="1" vertex="1">
          <mxGeometry x="290" y="310" width="140" height="30" as="geometry" />
        </mxCell>
        <mxCell id="xBVZhHVB03sZgFl3it3m-13" style="edgeStyle=orthogonalEdgeStyle;rounded=0;orthogonalLoop=1;jettySize=auto;html=1;entryX=0;entryY=0.5;entryDx=0;entryDy=0;" edge="1" parent="1" source="4OVAsPp15FX57j23adfs-16" target="xBVZhHVB03sZgFl3it3m-6">
          <mxGeometry relative="1" as="geometry" />
        </mxCell>
        <mxCell id="4OVAsPp15FX57j23adfs-16" value="&lt;span&gt;&lt;font style=&quot;color: rgb(0, 0, 0);&quot;&gt;crm_prd_info&lt;/font&gt;&lt;/span&gt;" style="rounded=1;whiteSpace=wrap;html=1;fillColor=#FFCC99;fontColor=#ffffff;strokeColor=#6D1F00;" parent="1" vertex="1">
          <mxGeometry x="290" y="370" width="140" height="30" as="geometry" />
        </mxCell>
        <mxCell id="xBVZhHVB03sZgFl3it3m-14" style="edgeStyle=orthogonalEdgeStyle;rounded=0;orthogonalLoop=1;jettySize=auto;html=1;" edge="1" parent="1" source="4OVAsPp15FX57j23adfs-17" target="xBVZhHVB03sZgFl3it3m-7">
          <mxGeometry relative="1" as="geometry" />
        </mxCell>
        <mxCell id="4OVAsPp15FX57j23adfs-17" value="&lt;span&gt;&lt;font style=&quot;color: rgb(0, 0, 0);&quot;&gt;crm_prd_info&lt;/font&gt;&lt;/span&gt;" style="rounded=1;whiteSpace=wrap;html=1;fillColor=#FFCC99;fontColor=#ffffff;strokeColor=#6D1F00;" parent="1" vertex="1">
          <mxGeometry x="290" y="410" width="140" height="30" as="geometry" />
        </mxCell>
        <mxCell id="xBVZhHVB03sZgFl3it3m-15" style="edgeStyle=orthogonalEdgeStyle;rounded=0;orthogonalLoop=1;jettySize=auto;html=1;" edge="1" parent="1" source="4OVAsPp15FX57j23adfs-18" target="xBVZhHVB03sZgFl3it3m-8">
          <mxGeometry relative="1" as="geometry" />
        </mxCell>
        <mxCell id="4OVAsPp15FX57j23adfs-18" value="&lt;span&gt;&lt;font style=&quot;color: rgb(0, 0, 0);&quot;&gt;crm_prd_info&lt;/font&gt;&lt;/span&gt;" style="rounded=1;whiteSpace=wrap;html=1;fillColor=#FFCC99;fontColor=#ffffff;strokeColor=#6D1F00;" parent="1" vertex="1">
          <mxGeometry x="290" y="450" width="140" height="30" as="geometry" />
        </mxCell>
        <mxCell id="4OVAsPp15FX57j23adfs-22" value="&lt;font style=&quot;font-size: 48px;&quot;&gt;Data Flow Diagram&lt;/font&gt;" style="text;html=1;align=center;verticalAlign=middle;whiteSpace=wrap;rounded=0;fontStyle=1" parent="1" vertex="1">
          <mxGeometry y="20" width="490" height="70" as="geometry" />
        </mxCell>
        <mxCell id="xBVZhHVB03sZgFl3it3m-1" value="" style="rounded=1;whiteSpace=wrap;html=1;fillColor=none;strokeColor=#666666;fontColor=#333333;" vertex="1" parent="1">
          <mxGeometry x="500" y="200" width="160" height="390" as="geometry" />
        </mxCell>
        <mxCell id="xBVZhHVB03sZgFl3it3m-2" value="&lt;font style=&quot;font-size: 24px;&quot;&gt;Silver Layer&lt;/font&gt;" style="rounded=1;whiteSpace=wrap;html=1;fillColor=#f5f5f5;fontColor=#333333;strokeColor=#666666;" vertex="1" parent="1">
          <mxGeometry x="500" y="130" width="160" height="60" as="geometry" />
        </mxCell>
        <mxCell id="xBVZhHVB03sZgFl3it3m-3" value="&lt;span&gt;&lt;font style=&quot;color: rgb(0, 0, 0);&quot;&gt;crm_sales_details&lt;/font&gt;&lt;/span&gt;" style="rounded=1;whiteSpace=wrap;html=1;fillColor=#f5f5f5;fontColor=#333333;strokeColor=#666666;" vertex="1" parent="1">
          <mxGeometry x="510" y="230" width="140" height="30" as="geometry" />
        </mxCell>
        <mxCell id="xBVZhHVB03sZgFl3it3m-4" value="&lt;span&gt;&lt;font style=&quot;color: rgb(0, 0, 0);&quot;&gt;crm_cust_info&lt;/font&gt;&lt;/span&gt;" style="rounded=1;whiteSpace=wrap;html=1;fillColor=#f5f5f5;fontColor=#333333;strokeColor=#666666;" vertex="1" parent="1">
          <mxGeometry x="510" y="270" width="140" height="30" as="geometry" />
        </mxCell>
        <mxCell id="xBVZhHVB03sZgFl3it3m-5" value="&lt;span&gt;&lt;font style=&quot;color: rgb(0, 0, 0);&quot;&gt;crm_prd_info&lt;/font&gt;&lt;/span&gt;" style="rounded=1;whiteSpace=wrap;html=1;fillColor=#f5f5f5;fontColor=#333333;strokeColor=#666666;" vertex="1" parent="1">
          <mxGeometry x="510" y="310" width="140" height="30" as="geometry" />
        </mxCell>
        <mxCell id="xBVZhHVB03sZgFl3it3m-6" value="&lt;span&gt;&lt;font style=&quot;color: rgb(0, 0, 0);&quot;&gt;crm_prd_info&lt;/font&gt;&lt;/span&gt;" style="rounded=1;whiteSpace=wrap;html=1;fillColor=#f5f5f5;fontColor=#333333;strokeColor=#666666;" vertex="1" parent="1">
          <mxGeometry x="510" y="370" width="140" height="30" as="geometry" />
        </mxCell>
        <mxCell id="xBVZhHVB03sZgFl3it3m-7" value="&lt;span&gt;&lt;font style=&quot;color: rgb(0, 0, 0);&quot;&gt;crm_prd_info&lt;/font&gt;&lt;/span&gt;" style="rounded=1;whiteSpace=wrap;html=1;fillColor=#f5f5f5;fontColor=#333333;strokeColor=#666666;" vertex="1" parent="1">
          <mxGeometry x="510" y="410" width="140" height="30" as="geometry" />
        </mxCell>
        <mxCell id="xBVZhHVB03sZgFl3it3m-8" value="&lt;span&gt;&lt;font style=&quot;color: rgb(0, 0, 0);&quot;&gt;crm_prd_info&lt;/font&gt;&lt;/span&gt;" style="rounded=1;whiteSpace=wrap;html=1;fillColor=#f5f5f5;fontColor=#333333;strokeColor=#666666;" vertex="1" parent="1">
          <mxGeometry x="510" y="450" width="140" height="30" as="geometry" />
        </mxCell>
      </root>
    </mxGraphModel>
  </diagram>
</mxfile>
